<mxfile host="app.diagrams.net" agent="Mozilla/5.0 (Windows NT 10.0; Win64; x64) AppleWebKit/537.36 (KHTML, like Gecko) Chrome/98.0.4758.139 Safari/537.36" version="26.0.4">
  <diagram name="第 1 页" id="Usslekfxct5vgBnJ93Fj">
    <mxGraphModel dx="575" dy="1066" grid="1" gridSize="1" guides="1" tooltips="1" connect="1" arrows="1" fold="1" page="1" pageScale="1" pageWidth="1169" pageHeight="827" math="0" shadow="0">
      <root>
        <mxCell id="0" />
        <mxCell id="1" parent="0" />
        <mxCell id="GlNvRw07ye_8XTbk8pvg-1" value="" style="rounded=0;whiteSpace=wrap;html=1;fillColor=#dae8fc;strokeColor=#6c8ebf;" vertex="1" parent="1">
          <mxGeometry x="1193" y="22" width="320" height="280" as="geometry" />
        </mxCell>
        <mxCell id="GlNvRw07ye_8XTbk8pvg-2" value="状态1" style="ellipse;whiteSpace=wrap;html=1;fillColor=#fff2cc;strokeColor=#d6b656;fontSize=20;" vertex="1" parent="1">
          <mxGeometry x="1293" y="72" width="120" height="80" as="geometry" />
        </mxCell>
        <mxCell id="GlNvRw07ye_8XTbk8pvg-3" value="" style="curved=1;endArrow=classic;html=1;rounded=0;exitX=0.98;exitY=0.728;exitDx=0;exitDy=0;exitPerimeter=0;startArrow=classic;startFill=1;" edge="1" parent="1">
          <mxGeometry width="50" height="50" relative="1" as="geometry">
            <mxPoint x="1419.3" y="130.24" as="sourcePoint" />
            <mxPoint x="1466.7" y="184" as="targetPoint" />
            <Array as="points">
              <mxPoint x="1463.7" y="135" />
            </Array>
          </mxGeometry>
        </mxCell>
        <mxCell id="GlNvRw07ye_8XTbk8pvg-4" value="状态n" style="ellipse;whiteSpace=wrap;html=1;fillColor=#fff2cc;strokeColor=#d6b656;fontSize=20;" vertex="1" parent="1">
          <mxGeometry x="1203" y="192" width="120" height="80" as="geometry" />
        </mxCell>
        <mxCell id="GlNvRw07ye_8XTbk8pvg-5" value="状态2" style="ellipse;whiteSpace=wrap;html=1;fillColor=#fff2cc;strokeColor=#d6b656;fontSize=20;" vertex="1" parent="1">
          <mxGeometry x="1383" y="192" width="120" height="80" as="geometry" />
        </mxCell>
        <mxCell id="GlNvRw07ye_8XTbk8pvg-6" value="" style="endArrow=classic;startArrow=classic;html=1;rounded=0;" edge="1" parent="1">
          <mxGeometry width="50" height="50" relative="1" as="geometry">
            <mxPoint x="1333" y="232" as="sourcePoint" />
            <mxPoint x="1373" y="232" as="targetPoint" />
          </mxGeometry>
        </mxCell>
        <mxCell id="GlNvRw07ye_8XTbk8pvg-7" value="" style="curved=1;endArrow=classic;html=1;rounded=0;exitX=0.98;exitY=0.728;exitDx=0;exitDy=0;exitPerimeter=0;startArrow=classic;startFill=1;" edge="1" parent="1">
          <mxGeometry width="50" height="50" relative="1" as="geometry">
            <mxPoint x="1246" y="188" as="sourcePoint" />
            <mxPoint x="1293" y="136" as="targetPoint" />
            <Array as="points">
              <mxPoint x="1246" y="143" />
            </Array>
          </mxGeometry>
        </mxCell>
        <mxCell id="GlNvRw07ye_8XTbk8pvg-8" value="" style="rounded=0;whiteSpace=wrap;html=1;rotation=0;fillColor=#dae8fc;strokeColor=#6c8ebf;" vertex="1" parent="1">
          <mxGeometry x="1598" y="22" width="95" height="281" as="geometry" />
        </mxCell>
        <mxCell id="GlNvRw07ye_8XTbk8pvg-9" value="线程" style="text;strokeColor=none;align=center;fillColor=none;html=1;verticalAlign=middle;whiteSpace=wrap;rounded=0;fontSize=25;" vertex="1" parent="1">
          <mxGeometry x="1273" y="32" width="160" height="30" as="geometry" />
        </mxCell>
        <mxCell id="GlNvRw07ye_8XTbk8pvg-10" value="事件队列" style="text;strokeColor=none;align=center;fillColor=none;html=1;verticalAlign=middle;whiteSpace=wrap;rounded=0;fontSize=20;" vertex="1" parent="1">
          <mxGeometry x="1565" y="29" width="160" height="30" as="geometry" />
        </mxCell>
        <mxCell id="GlNvRw07ye_8XTbk8pvg-11" value="事件1" style="rounded=0;whiteSpace=wrap;html=1;fontSize=20;fillColor=#fff2cc;strokeColor=#d6b656;" vertex="1" parent="1">
          <mxGeometry x="1606" y="72" width="80" height="41" as="geometry" />
        </mxCell>
        <mxCell id="GlNvRw07ye_8XTbk8pvg-12" value="事件2" style="rounded=0;whiteSpace=wrap;html=1;fontSize=20;fillColor=#fff2cc;strokeColor=#d6b656;" vertex="1" parent="1">
          <mxGeometry x="1605" y="142" width="80" height="41" as="geometry" />
        </mxCell>
        <mxCell id="GlNvRw07ye_8XTbk8pvg-13" value="事件n" style="rounded=0;whiteSpace=wrap;html=1;fontSize=20;fillColor=#fff2cc;strokeColor=#d6b656;" vertex="1" parent="1">
          <mxGeometry x="1605" y="231" width="80" height="41" as="geometry" />
        </mxCell>
        <mxCell id="GlNvRw07ye_8XTbk8pvg-14" value="&lt;font style=&quot;font-size: 42px;&quot;&gt;...&lt;/font&gt;" style="text;align=center;html=1;verticalAlign=middle;whiteSpace=wrap;rounded=0;" vertex="1" parent="1">
          <mxGeometry x="1615" y="183" width="60" height="30" as="geometry" />
        </mxCell>
        <mxCell id="GlNvRw07ye_8XTbk8pvg-15" value="" style="html=1;shadow=0;dashed=0;align=center;verticalAlign=middle;shape=mxgraph.arrows2.arrow;dy=0.71;dx=22.49;flipH=1;notch=0;" vertex="1" parent="1">
          <mxGeometry x="1523" y="93" width="70" height="40" as="geometry" />
        </mxCell>
        <mxCell id="GlNvRw07ye_8XTbk8pvg-16" value="" style="html=1;shadow=0;dashed=0;align=center;verticalAlign=middle;shape=mxgraph.arrows2.arrow;dy=0.71;dx=22.49;flipH=0;notch=0;" vertex="1" parent="1">
          <mxGeometry x="1523" y="212" width="70" height="40" as="geometry" />
        </mxCell>
        <mxCell id="GlNvRw07ye_8XTbk8pvg-17" value="读取" style="text;strokeColor=none;align=center;fillColor=none;html=1;verticalAlign=middle;whiteSpace=wrap;rounded=0;fontSize=20;" vertex="1" parent="1">
          <mxGeometry x="1532" y="63" width="55" height="30" as="geometry" />
        </mxCell>
        <mxCell id="GlNvRw07ye_8XTbk8pvg-18" value="写入" style="text;strokeColor=none;align=center;fillColor=none;html=1;verticalAlign=middle;whiteSpace=wrap;rounded=0;fontSize=20;" vertex="1" parent="1">
          <mxGeometry x="1532" y="183" width="55" height="30" as="geometry" />
        </mxCell>
        <mxCell id="GlNvRw07ye_8XTbk8pvg-19" value="写入" style="text;strokeColor=none;align=center;fillColor=none;html=1;verticalAlign=middle;whiteSpace=wrap;rounded=0;fontSize=20;" vertex="1" parent="1">
          <mxGeometry x="1712" y="113" width="55" height="30" as="geometry" />
        </mxCell>
        <mxCell id="GlNvRw07ye_8XTbk8pvg-20" value="" style="html=1;shadow=0;dashed=0;align=center;verticalAlign=middle;shape=mxgraph.arrows2.arrow;dy=0.71;dx=22.49;flipH=1;notch=0;" vertex="1" parent="1">
          <mxGeometry x="1703" y="143" width="70" height="40" as="geometry" />
        </mxCell>
        <mxCell id="GlNvRw07ye_8XTbk8pvg-21" value="其他&lt;div&gt;线程&lt;/div&gt;" style="rounded=0;whiteSpace=wrap;html=1;rotation=0;fillColor=#dae8fc;strokeColor=#6c8ebf;fontSize=29;" vertex="1" parent="1">
          <mxGeometry x="1783" y="21" width="95" height="281" as="geometry" />
        </mxCell>
      </root>
    </mxGraphModel>
  </diagram>
</mxfile>
